<?xml version="1.0" encoding="utf-8"?>
<!-- Generator: Adobe Illustrator 21.0.0, SVG Export Plug-In . SVG Version: 6.00 Build 0)  -->
<svg version="1.1" xmlns="http://www.w3.org/2000/svg" xmlns:xlink="http://www.w3.org/1999/xlink" x="0px" y="0px"
	 viewBox="0 0 694.5 201.5" style="enable-background:new 0 0 694.5 201.5;" xml:space="preserve">
<style type="text/css">
	.st0{fill:#3D485E;}
	.st1{fill:#272E3D;}
	.st2{fill:#1D232E;}
	.st3{fill:#DDE5F7;}
	.st4{fill:#EBF1FF;}
	.st5{fill:url(#SVGID_1_);}
	.st6{fill:#E6E6E6;}
	.st7{fill:#CCCCCC;}
	.st8{fill:#B3B3B3;}
	.st9{fill:#999999;}
	.st10{fill:#FFFFFF;}
	.st11{fill:none;stroke:#000000;stroke-miterlimit:10;}
	.st12{fill:#0000FF;}
	.st13{fill:#F15A24;}
	.st14{opacity:0.15;}
	.st15{fill:#E08F5A;}
	.st16{fill:url(#SVGID_4_);}
	.st17{fill:url(#SVGID_5_);}
	.st18{fill:url(#SVGID_6_);}
	.st19{fill:url(#SVGID_7_);}
	.st20{fill:url(#SVGID_8_);}
	.st21{fill:url(#SVGID_9_);}
	.st22{fill:url(#SVGID_10_);}
	.st23{fill:url(#SVGID_11_);}
	.st24{fill:url(#SVGID_12_);}
	.st25{fill:url(#SVGID_13_);}
	.st26{fill:url(#SVGID_14_);}
	.st27{fill:url(#SVGID_15_);}
	.st28{fill:url(#SVGID_16_);}
	.st29{fill:url(#SVGID_17_);}
	.st30{fill:url(#SVGID_18_);}
	.st31{fill:url(#SVGID_19_);}
	.st32{fill:url(#SVGID_20_);}
	.st33{fill:url(#SVGID_21_);}
	.st34{fill:url(#SVGID_22_);}
	.st35{fill:url(#SVGID_23_);}
	.st36{opacity:0.21;}
	.st37{fill:url(#SVGID_24_);}
	.st38{fill:url(#SVGID_25_);}
	.st39{fill:url(#SVGID_26_);}
	.st40{fill:url(#SVGID_27_);}
	.st41{fill:url(#SVGID_28_);}
	.st42{fill:url(#SVGID_29_);}
	.st43{fill:url(#SVGID_30_);}
	.st44{fill:url(#SVGID_31_);}
	.st45{fill:url(#SVGID_32_);}
	.st46{fill:url(#SVGID_33_);}
	.st47{fill:url(#SVGID_34_);}
	.st48{fill:url(#SVGID_35_);}
	.st49{fill:url(#SVGID_36_);}
	.st50{fill:url(#SVGID_37_);}
	.st51{fill:url(#SVGID_38_);}
	.st52{fill:url(#SVGID_39_);}
	.st53{fill:url(#SVGID_40_);}
	.st54{fill:url(#SVGID_41_);}
	.st55{fill:url(#SVGID_42_);}
	.st56{fill:url(#SVGID_43_);}
	.st57{fill:url(#SVGID_44_);}
	.st58{fill:url(#SVGID_45_);}
	.st59{fill:url(#SVGID_46_);}
	.st60{fill:url(#SVGID_47_);}
	.st61{fill:url(#SVGID_48_);}
	.st62{fill:url(#SVGID_49_);}
	.st63{fill:url(#SVGID_50_);}
	.st64{fill:url(#SVGID_51_);}
	.st65{fill:url(#SVGID_52_);}
	.st66{fill:url(#SVGID_53_);}
	.st67{fill:url(#SVGID_54_);}
	.st68{fill:url(#SVGID_55_);}
	.st69{fill:url(#SVGID_56_);}
	.st70{fill:url(#SVGID_57_);}
	.st71{fill:url(#SVGID_58_);}
	.st72{fill:url(#SVGID_59_);}
	.st73{fill:url(#SVGID_60_);}
	.st74{fill:url(#SVGID_61_);}
	.st75{fill:url(#SVGID_62_);}
	.st76{fill:url(#SVGID_63_);}
	.st77{fill:url(#SVGID_64_);}
	.st78{fill:url(#SVGID_65_);}
	.st79{fill:url(#SVGID_66_);}
	.st80{fill:url(#SVGID_67_);}
	.st81{fill:url(#SVGID_68_);}
	.st82{fill:url(#SVGID_69_);}
	.st83{fill:url(#SVGID_70_);}
	.st84{fill:url(#SVGID_71_);}
	.st85{fill:url(#SVGID_72_);}
	.st86{fill:url(#SVGID_73_);}
	.st87{fill:url(#SVGID_74_);}
	.st88{fill:url(#SVGID_75_);}
	.st89{fill:url(#SVGID_76_);}
	.st90{fill:url(#SVGID_77_);}
	.st91{fill:url(#SVGID_78_);}
	.st92{fill:url(#SVGID_79_);}
	.st93{fill:url(#SVGID_80_);}
	.st94{fill:url(#SVGID_81_);}
	.st95{fill:url(#SVGID_82_);}
	.st96{fill:url(#SVGID_83_);}
	.st97{fill:url(#SVGID_84_);}
	.st98{fill:url(#SVGID_85_);}
	.st99{fill:url(#SVGID_86_);}
	.st100{fill:url(#SVGID_87_);}
	.st101{fill:url(#SVGID_88_);}
	.st102{fill:url(#SVGID_89_);}
	.st103{fill:url(#SVGID_90_);}
	.st104{fill:url(#SVGID_91_);}
	.st105{fill:url(#SVGID_92_);}
	.st106{fill:url(#SVGID_93_);}
	.st107{fill:url(#SVGID_94_);}
	.st108{fill:url(#SVGID_95_);}
	.st109{fill:url(#SVGID_96_);}
	.st110{fill:url(#SVGID_97_);}
	.st111{fill:url(#SVGID_98_);}
	.st112{fill:url(#SVGID_99_);}
	.st113{fill:url(#SVGID_100_);}
	.st114{fill:url(#SVGID_101_);}
	.st115{fill:url(#SVGID_102_);}
	.st116{fill:url(#SVGID_103_);}
	.st117{fill:url(#SVGID_104_);}
	.st118{fill:url(#SVGID_105_);}
	.st119{fill:url(#SVGID_106_);}
	.st120{fill:url(#SVGID_107_);}
	.st121{fill:url(#SVGID_108_);}
	.st122{fill:url(#SVGID_109_);}
	.st123{fill:url(#SVGID_110_);}
	.st124{fill:url(#SVGID_111_);}
	.st125{fill:url(#SVGID_112_);}
	.st126{fill:url(#SVGID_113_);}
	.st127{fill:url(#SVGID_114_);}
	.st128{fill:url(#SVGID_115_);}
	.st129{fill:url(#SVGID_116_);}
	.st130{fill:url(#SVGID_117_);}
	.st131{fill:url(#SVGID_118_);}
	.st132{fill:url(#SVGID_119_);}
	.st133{fill:url(#SVGID_120_);}
	.st134{fill:url(#SVGID_121_);}
	.st135{fill:url(#SVGID_122_);}
	.st136{fill:url(#SVGID_123_);}
	.st137{fill:url(#SVGID_124_);}
	.st138{fill:url(#SVGID_125_);}
	.st139{fill:url(#SVGID_126_);}
	.st140{fill:url(#SVGID_127_);}
	.st141{fill:url(#SVGID_128_);}
	.st142{fill:url(#SVGID_129_);}
	.st143{fill:url(#SVGID_130_);}
	.st144{fill:url(#SVGID_131_);}
	.st145{fill:url(#SVGID_132_);}
	.st146{fill:url(#SVGID_133_);}
	.st147{fill:url(#SVGID_134_);}
	.st148{fill:url(#SVGID_135_);}
	.st149{fill:url(#SVGID_136_);}
	.st150{fill:url(#SVGID_137_);}
	.st151{fill:url(#SVGID_138_);}
	.st152{fill:url(#SVGID_139_);}
	.st153{fill:url(#SVGID_140_);}
	.st154{fill:url(#SVGID_141_);}
	.st155{fill:url(#SVGID_142_);}
	.st156{fill:url(#SVGID_143_);}
	.st157{fill:url(#SVGID_144_);}
	.st158{fill:url(#SVGID_145_);}
	.st159{fill:url(#SVGID_146_);}
	.st160{fill:url(#SVGID_147_);}
	.st161{fill:url(#SVGID_148_);}
	.st162{fill:url(#SVGID_149_);}
	.st163{fill:url(#SVGID_150_);}
	.st164{fill:url(#SVGID_151_);}
	.st165{fill:url(#SVGID_152_);}
	.st166{fill:url(#SVGID_153_);}
	.st167{fill:url(#SVGID_154_);}
	.st168{fill:url(#SVGID_155_);}
	.st169{fill:url(#SVGID_156_);}
	.st170{fill:url(#SVGID_157_);}
	.st171{fill:url(#SVGID_158_);}
	.st172{fill:url(#SVGID_159_);}
	.st173{fill:url(#SVGID_160_);}
	.st174{fill:url(#SVGID_161_);}
	.st175{fill:url(#SVGID_162_);}
	.st176{fill:url(#SVGID_163_);}
	.st177{fill:url(#SVGID_164_);}
	.st178{fill:url(#SVGID_165_);}
	.st179{fill:url(#SVGID_166_);}
	.st180{fill:url(#SVGID_167_);}
	.st181{fill:url(#SVGID_168_);}
	.st182{fill:url(#SVGID_169_);}
	.st183{fill:url(#SVGID_170_);}
	.st184{fill:url(#SVGID_171_);}
	.st185{fill:url(#SVGID_172_);}
	.st186{fill:url(#SVGID_173_);}
	.st187{fill:url(#SVGID_174_);}
	.st188{fill:url(#SVGID_175_);}
	.st189{fill:url(#SVGID_176_);}
	.st190{fill:url(#SVGID_177_);}
	.st191{fill:url(#SVGID_178_);}
	.st192{fill:url(#SVGID_179_);}
	.st193{fill:url(#SVGID_180_);}
	.st194{fill:url(#SVGID_181_);}
	.st195{fill:url(#SVGID_182_);}
	.st196{fill:url(#SVGID_183_);}
	.st197{fill:url(#SVGID_184_);}
	.st198{fill:url(#SVGID_185_);}
	.st199{fill:url(#SVGID_186_);}
	.st200{fill:url(#SVGID_187_);}
	.st201{fill:url(#SVGID_188_);}
	.st202{fill:url(#SVGID_189_);}
	.st203{fill:url(#SVGID_190_);}
	.st204{fill:url(#SVGID_191_);}
	.st205{fill:url(#SVGID_192_);}
	.st206{fill:url(#SVGID_193_);}
	.st207{fill:url(#SVGID_194_);}
	.st208{fill:url(#SVGID_195_);}
	.st209{fill:url(#SVGID_196_);}
	.st210{fill:url(#SVGID_197_);}
	.st211{fill:url(#SVGID_198_);}
	.st212{fill:url(#SVGID_199_);}
	.st213{fill:url(#SVGID_200_);}
	.st214{fill:url(#SVGID_201_);}
	.st215{fill:url(#SVGID_202_);}
	.st216{fill:url(#SVGID_203_);}
	.st217{fill:url(#SVGID_204_);}
	.st218{fill:url(#SVGID_205_);}
	.st219{fill:url(#SVGID_206_);}
	.st220{fill:url(#SVGID_207_);}
	.st221{fill:url(#SVGID_208_);}
	.st222{fill:url(#SVGID_209_);}
	.st223{fill:url(#SVGID_210_);}
	.st224{fill:url(#SVGID_211_);}
	.st225{fill:url(#SVGID_212_);}
	.st226{fill:url(#SVGID_213_);}
	.st227{fill:#D96F57;}
	.st228{fill:none;}
	.st229{fill:#FF6D56;}
	.st230{fill:url(#SVGID_214_);}
	.st231{fill:url(#SVGID_215_);}
	.st232{fill:url(#SVGID_216_);}
	.st233{fill:url(#SVGID_217_);}
	.st234{fill:url(#SVGID_218_);}
	.st235{fill:url(#SVGID_219_);}
	.st236{fill:url(#SVGID_220_);}
	.st237{fill:url(#SVGID_221_);}
	.st238{fill:url(#SVGID_222_);}
	.st239{fill:url(#SVGID_223_);}
	.st240{fill:url(#SVGID_224_);}
	.st241{fill:url(#SVGID_225_);}
	.st242{fill:url(#SVGID_226_);}
	.st243{fill:url(#SVGID_227_);}
	.st244{fill:url(#SVGID_228_);}
	.st245{fill:url(#SVGID_229_);}
	.st246{fill:url(#SVGID_230_);}
	.st247{fill:url(#SVGID_231_);}
	.st248{fill:url(#SVGID_232_);}
	.st249{fill:url(#SVGID_233_);}
	.st250{fill:url(#SVGID_234_);}
	.st251{fill:url(#SVGID_235_);}
	.st252{fill:url(#SVGID_236_);}
	.st253{fill:url(#SVGID_237_);}
	.st254{fill:url(#SVGID_238_);}
	.st255{fill:url(#SVGID_239_);}
	.st256{fill:url(#SVGID_240_);}
	.st257{fill:url(#SVGID_241_);}
	.st258{fill:url(#SVGID_242_);}
	.st259{fill:url(#SVGID_243_);}
	.st260{fill:url(#SVGID_244_);}
	.st261{fill:url(#SVGID_245_);}
	.st262{fill:url(#SVGID_246_);}
	.st263{fill:url(#SVGID_247_);}
	.st264{fill:url(#SVGID_248_);}
	.st265{fill:url(#SVGID_249_);}
	.st266{fill:url(#SVGID_250_);}
	.st267{fill:url(#SVGID_251_);}
	.st268{fill:url(#SVGID_252_);}
	.st269{fill:url(#SVGID_253_);}
	.st270{fill:url(#SVGID_254_);}
	.st271{fill:url(#SVGID_255_);}
	.st272{fill:url(#SVGID_256_);}
	.st273{fill:url(#SVGID_257_);}
	.st274{fill:url(#SVGID_258_);}
	.st275{fill:url(#SVGID_259_);}
	.st276{fill:url(#SVGID_260_);}
	.st277{fill:url(#SVGID_261_);}
	.st278{fill:url(#SVGID_262_);}
	.st279{fill:url(#SVGID_263_);}
	.st280{fill:url(#SVGID_264_);}
	.st281{fill:url(#SVGID_265_);}
	.st282{fill:url(#SVGID_266_);}
	.st283{fill:url(#SVGID_267_);}
	.st284{fill:url(#SVGID_268_);}
	.st285{fill:url(#SVGID_269_);}
	.st286{fill:url(#SVGID_270_);}
	.st287{fill:url(#SVGID_271_);}
	.st288{fill:url(#SVGID_272_);}
	.st289{fill:url(#SVGID_273_);}
	.st290{fill:url(#SVGID_274_);}
	.st291{fill:url(#SVGID_275_);}
	.st292{fill:url(#SVGID_276_);}
	.st293{fill:url(#SVGID_277_);}
	.st294{fill:url(#SVGID_278_);}
	.st295{fill:url(#SVGID_279_);}
	.st296{fill:url(#SVGID_280_);}
	.st297{fill:url(#SVGID_281_);}
	.st298{fill:url(#SVGID_282_);}
	.st299{fill:url(#SVGID_283_);}
	.st300{fill:url(#SVGID_284_);}
	.st301{fill:url(#SVGID_285_);}
	.st302{fill:url(#SVGID_286_);}
	.st303{fill:url(#SVGID_287_);}
	.st304{fill:url(#SVGID_288_);}
	.st305{fill:url(#SVGID_289_);}
	.st306{fill:url(#SVGID_290_);}
	.st307{fill:url(#SVGID_291_);}
	.st308{fill:url(#SVGID_292_);}
	.st309{fill:url(#SVGID_293_);}
	.st310{fill:url(#SVGID_294_);}
	.st311{fill:url(#SVGID_295_);}
	.st312{fill:url(#SVGID_296_);}
	.st313{fill:url(#SVGID_297_);}
	.st314{fill:url(#SVGID_298_);}
	.st315{fill:url(#SVGID_299_);}
	.st316{fill:url(#SVGID_300_);}
	.st317{fill:url(#SVGID_301_);}
	.st318{fill:url(#SVGID_302_);}
	.st319{fill:url(#SVGID_303_);}
	.st320{fill:url(#SVGID_304_);}
	.st321{fill:url(#SVGID_305_);}
	.st322{fill:url(#SVGID_306_);}
	.st323{fill:url(#SVGID_307_);}
	.st324{fill:url(#SVGID_308_);}
	.st325{fill:url(#SVGID_309_);}
	.st326{fill:url(#SVGID_310_);}
	.st327{fill:url(#SVGID_311_);}
	.st328{fill:url(#SVGID_312_);}
	.st329{fill:url(#SVGID_313_);}
	.st330{fill:url(#SVGID_314_);}
	.st331{fill:url(#SVGID_315_);}
	.st332{fill:url(#SVGID_316_);}
	.st333{fill:url(#SVGID_317_);}
	.st334{fill:url(#SVGID_318_);}
	.st335{fill:url(#SVGID_319_);}
	.st336{fill:url(#SVGID_320_);}
	.st337{fill:url(#SVGID_321_);}
	.st338{fill:url(#SVGID_322_);}
	.st339{fill:url(#SVGID_323_);}
	.st340{fill:url(#SVGID_324_);}
	.st341{fill:url(#SVGID_325_);}
	.st342{fill:url(#SVGID_326_);}
	.st343{fill:url(#SVGID_327_);}
	.st344{fill:url(#SVGID_328_);}
	.st345{fill:url(#SVGID_329_);}
	.st346{fill:url(#SVGID_330_);}
	.st347{fill:url(#SVGID_331_);}
	.st348{fill:url(#SVGID_332_);}
	.st349{fill:url(#SVGID_333_);}
	.st350{fill:url(#SVGID_334_);}
	.st351{fill:url(#SVGID_335_);}
	.st352{fill:url(#SVGID_336_);}
	.st353{fill:url(#SVGID_337_);}
	.st354{fill:url(#SVGID_338_);}
	.st355{fill:url(#SVGID_339_);}
	.st356{fill:url(#SVGID_340_);}
	.st357{fill:url(#SVGID_341_);}
	.st358{fill:url(#SVGID_342_);}
	.st359{fill:url(#SVGID_343_);}
	.st360{fill:url(#SVGID_344_);}
	.st361{fill:url(#SVGID_345_);}
	.st362{fill:url(#SVGID_346_);}
	.st363{fill:url(#SVGID_347_);}
	.st364{fill:url(#SVGID_348_);}
	.st365{fill:url(#SVGID_349_);}
	.st366{fill:url(#SVGID_350_);}
	.st367{fill:url(#SVGID_351_);}
	.st368{fill:url(#SVGID_352_);}
	.st369{fill:url(#SVGID_353_);}
	.st370{fill:url(#SVGID_354_);}
	.st371{fill:url(#SVGID_355_);}
	.st372{fill:url(#SVGID_356_);}
	.st373{fill:url(#SVGID_357_);}
	.st374{fill:url(#SVGID_358_);}
	.st375{fill:url(#SVGID_359_);}
	.st376{fill:url(#SVGID_360_);}
	.st377{fill:url(#SVGID_361_);}
	.st378{fill:url(#SVGID_362_);}
	.st379{fill:url(#SVGID_363_);}
	.st380{fill:url(#SVGID_364_);}
	.st381{fill:url(#SVGID_365_);}
	.st382{fill:url(#SVGID_366_);}
	.st383{fill:url(#SVGID_367_);}
	.st384{fill:url(#SVGID_368_);}
	.st385{fill:url(#SVGID_369_);}
	.st386{fill:url(#SVGID_370_);}
	.st387{fill:url(#SVGID_371_);}
	.st388{fill:url(#SVGID_372_);}
	.st389{fill:url(#SVGID_373_);}
	.st390{fill:url(#SVGID_374_);}
	.st391{fill:url(#SVGID_375_);}
	.st392{fill:url(#SVGID_376_);}
	.st393{fill:url(#SVGID_377_);}
	.st394{fill:url(#SVGID_378_);}
	.st395{fill:url(#SVGID_379_);}
	.st396{fill:url(#SVGID_380_);}
	.st397{fill:url(#SVGID_381_);}
	.st398{fill:url(#SVGID_382_);}
	.st399{fill:url(#SVGID_383_);}
	.st400{fill:url(#SVGID_384_);}
	.st401{fill:url(#SVGID_385_);}
	.st402{fill:url(#SVGID_386_);}
	.st403{fill:url(#SVGID_387_);}
	.st404{fill:url(#SVGID_388_);}
	.st405{fill:url(#SVGID_389_);}
	.st406{fill:url(#SVGID_390_);}
	.st407{fill:url(#SVGID_391_);}
	.st408{fill:url(#SVGID_392_);}
	.st409{fill:url(#SVGID_393_);}
	.st410{fill:url(#SVGID_394_);}
	.st411{fill:url(#SVGID_395_);}
	.st412{fill:url(#SVGID_396_);}
	.st413{fill:url(#SVGID_397_);}
	.st414{fill:url(#SVGID_398_);}
	.st415{fill:url(#SVGID_399_);}
	.st416{fill:url(#SVGID_400_);}
	.st417{fill:url(#SVGID_401_);}
	.st418{fill:url(#SVGID_402_);}
	.st419{fill:url(#SVGID_403_);}
	.st420{fill:url(#SVGID_404_);}
	.st421{fill:url(#SVGID_405_);}
	.st422{fill:url(#SVGID_406_);}
	.st423{fill:url(#SVGID_407_);}
	.st424{fill:url(#SVGID_408_);}
	.st425{fill:url(#SVGID_409_);}
	.st426{fill:url(#SVGID_410_);}
	.st427{fill:url(#SVGID_411_);}
	.st428{fill:url(#SVGID_412_);}
	.st429{fill:url(#SVGID_413_);}
	.st430{fill:url(#SVGID_414_);}
	.st431{fill:url(#SVGID_415_);}
	.st432{fill:url(#SVGID_416_);}
	.st433{fill:url(#SVGID_417_);}
	.st434{fill:url(#SVGID_418_);}
	.st435{fill:url(#SVGID_419_);}
	.st436{fill:url(#SVGID_420_);}
	.st437{fill:url(#SVGID_421_);}
	.st438{fill:url(#SVGID_422_);}
	.st439{fill:url(#SVGID_423_);}
	.st440{fill:url(#SVGID_424_);}
	.st441{fill:url(#SVGID_425_);}
	.st442{fill:url(#SVGID_426_);}
	.st443{fill:url(#SVGID_427_);}
	.st444{fill:url(#SVGID_428_);}
	.st445{fill:url(#SVGID_429_);}
	.st446{fill:url(#SVGID_430_);}
	.st447{fill:url(#SVGID_431_);}
	.st448{fill:url(#SVGID_432_);}
	.st449{fill:url(#SVGID_433_);}
	.st450{fill:url(#SVGID_434_);}
	.st451{fill:url(#SVGID_435_);}
	.st452{fill:url(#SVGID_436_);}
	.st453{fill:url(#SVGID_437_);}
	.st454{fill:url(#SVGID_438_);}
	.st455{fill:url(#SVGID_439_);}
	.st456{fill:url(#SVGID_440_);}
	.st457{fill:url(#SVGID_441_);}
	.st458{fill:url(#SVGID_442_);}
	.st459{fill:url(#SVGID_443_);}
	.st460{fill:url(#SVGID_444_);}
	.st461{fill:url(#SVGID_445_);}
	.st462{fill:url(#SVGID_446_);}
	.st463{fill:url(#SVGID_447_);}
	.st464{fill:url(#SVGID_448_);}
	.st465{fill:url(#SVGID_449_);}
	.st466{fill:url(#SVGID_450_);}
	.st467{fill:url(#SVGID_451_);}
	.st468{fill:url(#SVGID_452_);}
	.st469{fill:url(#SVGID_453_);}
	.st470{fill:url(#SVGID_454_);}
	.st471{fill:url(#SVGID_455_);}
	.st472{fill:url(#SVGID_456_);}
	.st473{fill:url(#SVGID_457_);}
	.st474{fill:url(#SVGID_458_);}
	.st475{fill:url(#SVGID_459_);}
	.st476{fill:url(#SVGID_460_);}
	.st477{fill:url(#SVGID_461_);}
	.st478{fill:url(#SVGID_462_);}
	.st479{fill:url(#SVGID_463_);}
	.st480{fill:url(#SVGID_464_);}
	.st481{fill:url(#SVGID_465_);}
	.st482{fill:url(#SVGID_466_);}
	.st483{fill:url(#SVGID_467_);}
	.st484{fill:url(#SVGID_468_);}
	.st485{fill:url(#SVGID_469_);}
	.st486{fill:url(#SVGID_470_);}
	.st487{fill:url(#SVGID_471_);}
	.st488{fill:url(#SVGID_472_);}
	.st489{fill:url(#SVGID_473_);}
	.st490{fill:url(#SVGID_474_);}
	.st491{fill:url(#SVGID_475_);}
	.st492{fill:url(#SVGID_476_);}
	.st493{fill:url(#SVGID_477_);}
	.st494{fill:url(#SVGID_478_);}
	.st495{fill:url(#SVGID_479_);}
	.st496{fill:url(#SVGID_480_);}
	.st497{fill:url(#SVGID_481_);}
	.st498{fill:url(#SVGID_482_);}
	.st499{fill:url(#SVGID_483_);}
	.st500{fill:url(#SVGID_484_);}
	.st501{fill:url(#SVGID_485_);}
	.st502{fill:url(#SVGID_486_);}
	.st503{fill:url(#SVGID_487_);}
	.st504{fill:url(#SVGID_488_);}
	.st505{fill:url(#SVGID_489_);}
	.st506{fill:url(#SVGID_490_);}
	.st507{fill:url(#SVGID_491_);}
	.st508{fill:url(#SVGID_492_);}
	.st509{fill:url(#SVGID_493_);}
	.st510{fill:url(#SVGID_494_);}
	.st511{fill:url(#SVGID_495_);}
	.st512{fill:url(#SVGID_496_);}
	.st513{fill:url(#SVGID_497_);}
	.st514{fill:url(#SVGID_498_);}
	.st515{fill:url(#SVGID_499_);}
	.st516{fill:url(#SVGID_500_);}
	.st517{fill:url(#SVGID_501_);}
	.st518{fill:url(#SVGID_502_);}
	.st519{fill:url(#SVGID_503_);}
	.st520{fill:url(#SVGID_504_);}
	.st521{fill:url(#SVGID_505_);}
	.st522{fill:url(#SVGID_506_);}
	.st523{fill:url(#SVGID_507_);}
	.st524{fill:url(#SVGID_508_);}
	.st525{fill:url(#SVGID_509_);}
	.st526{fill:url(#SVGID_510_);}
	.st527{fill:url(#SVGID_511_);}
	.st528{fill:url(#SVGID_512_);}
	.st529{fill:url(#SVGID_513_);}
	.st530{fill:url(#SVGID_514_);}
	.st531{fill:url(#SVGID_515_);}
	.st532{fill:url(#SVGID_516_);}
	.st533{fill:url(#SVGID_517_);}
	.st534{fill:url(#SVGID_518_);}
	.st535{fill:url(#SVGID_519_);}
	.st536{fill:url(#SVGID_520_);}
	.st537{fill:url(#SVGID_521_);}
	.st538{fill:url(#SVGID_522_);}
	.st539{fill:url(#SVGID_523_);}
	.st540{fill:url(#SVGID_524_);}
	.st541{fill:url(#SVGID_525_);}
	.st542{fill:url(#SVGID_526_);}
	.st543{fill:url(#SVGID_527_);}
	.st544{fill:url(#SVGID_528_);}
	.st545{fill:url(#SVGID_529_);}
	.st546{fill:url(#SVGID_530_);}
	.st547{fill:url(#SVGID_531_);}
	.st548{fill:url(#SVGID_532_);}
	.st549{fill:url(#SVGID_533_);}
	.st550{fill:url(#SVGID_534_);}
	.st551{fill:url(#SVGID_535_);}
	.st552{fill:url(#SVGID_536_);}
	.st553{fill:url(#SVGID_537_);}
	.st554{fill:url(#SVGID_538_);}
	.st555{fill:url(#SVGID_539_);}
	.st556{fill:url(#SVGID_540_);}
	.st557{fill:url(#SVGID_541_);}
	.st558{fill:url(#SVGID_542_);}
	.st559{fill:url(#SVGID_543_);}
	.st560{fill:#474C54;}
	.st561{fill:#77CBF2;}
	.st562{fill:#FF886E;}
	.st563{fill:#B7E4FF;}
	.st564{fill:#4792E3;}
	.st565{fill:#FFB7A6;}
	.st566{fill:url(#SVGID_544_);}
	.st567{fill:url(#SVGID_545_);}
	.st568{fill:url(#SVGID_546_);}
	.st569{fill:url(#SVGID_547_);}
	.st570{fill:url(#SVGID_548_);}
	.st571{fill:url(#SVGID_549_);}
	.st572{fill:url(#SVGID_550_);}
	.st573{fill:url(#SVGID_551_);}
	.st574{fill:url(#SVGID_552_);}
	.st575{fill:url(#SVGID_553_);}
	.st576{fill:url(#SVGID_554_);}
	.st577{fill:url(#SVGID_555_);}
	.st578{fill:url(#SVGID_556_);}
	.st579{fill:url(#SVGID_557_);}
	.st580{fill:url(#SVGID_558_);}
	.st581{fill:url(#SVGID_559_);}
	.st582{fill:url(#SVGID_560_);}
	.st583{fill:url(#SVGID_561_);}
	.st584{fill:url(#SVGID_562_);}
	.st585{fill:url(#SVGID_563_);}
	.st586{fill:url(#SVGID_564_);}
	.st587{fill:url(#SVGID_565_);}
	.st588{fill:url(#SVGID_566_);}
	.st589{fill:url(#SVGID_567_);}
	.st590{fill:url(#SVGID_568_);}
	.st591{fill:url(#SVGID_569_);}
	.st592{fill:url(#SVGID_570_);}
	.st593{fill:url(#SVGID_571_);}
	.st594{fill:url(#SVGID_572_);}
	.st595{fill:url(#SVGID_573_);}
	.st596{fill:url(#SVGID_574_);}
	.st597{fill:url(#SVGID_575_);}
	.st598{fill:url(#SVGID_576_);}
	.st599{fill:url(#SVGID_577_);}
	.st600{fill:url(#SVGID_578_);}
	.st601{fill:url(#SVGID_579_);}
	.st602{fill:url(#SVGID_580_);}
	.st603{fill:url(#SVGID_581_);}
	.st604{fill:url(#SVGID_582_);}
	.st605{fill:url(#SVGID_583_);}
	.st606{fill:none;stroke:#FFFFFF;stroke-miterlimit:10;}
	.st607{opacity:0.27;}
	.st608{opacity:0.13;}
	.st609{fill:#FFBAA6;}
	.st610{fill:#FF8D6B;}
	.st611{display:none;}
	.st612{display:inline;fill:#606060;}
	.st613{fill:#4D4D4D;}
	.st614{fill:#1A1A1A;}
	.st615{fill:none;stroke:#FF0000;stroke-linejoin:bevel;stroke-miterlimit:10;}
</style>
<g id="Calque_3">
</g>
<g id="Calque_2">
	<g>
		<g>
			<g class="st607">
				<polygon class="st6" points="129.9,45.4 82.4,106.3 105,143.4 154.8,143.4 177.4,106.3 				"/>
				<polygon class="st7" points="129.6,45.7 177.7,106.5 206.1,57.9 129.6,16.1 				"/>
				<polygon class="st7" points="53.7,58.4 53.7,143.6 82.6,106 				"/>
				<polygon class="st7" points="104.7,143.1 155.1,143.1 129.6,185.4 				"/>
				<polygon class="st7" points="177.1,106 206.1,143.6 155.1,143.1 				"/>
				<polygon class="st8" points="53.7,58.4 82.6,106 129.6,45.7 129.6,16.1 				"/>
				<polygon class="st8" points="206.1,57.9 177.1,106 206.1,143.6 				"/>
				<polygon class="st8" points="129.6,185.4 155.1,143.1 206.1,143.6 				"/>
				<polygon class="st8" points="53.7,143.6 82.6,106 104.7,143.1 				"/>
				<polygon class="st9" points="53.7,143.6 104.7,143.1 129.6,185.4 				"/>
			</g>
			<g class="st608">
				<polygon class="st6" points="91.6,45.4 44.1,106.3 66.7,143.4 116.6,143.4 139.2,106.3 				"/>
				<polygon class="st7" points="91.3,45.7 139.5,106.5 167.9,57.9 91.3,16.1 				"/>
				<polygon class="st7" points="15.4,58.4 15.4,143.6 44.4,106 				"/>
				<polygon class="st7" points="66.4,143.1 116.8,143.1 91.3,185.4 				"/>
				<polygon class="st7" points="138.9,106 167.9,143.6 116.8,143.1 				"/>
				<polygon class="st8" points="15.4,58.4 44.4,106 91.3,45.7 91.3,16.1 				"/>
				<polygon class="st8" points="167.9,57.9 138.9,106 167.9,143.6 				"/>
				<polygon class="st8" points="91.3,185.4 116.8,143.1 167.9,143.6 				"/>
				<polygon class="st8" points="15.4,143.6 44.4,106 66.4,143.1 				"/>
				<polygon class="st9" points="15.4,143.6 66.4,143.1 91.3,185.4 				"/>
			</g>
		</g>
		<g>
			<path class="st10" d="M256.1,112.9h-3c-1,0-1.7-0.3-2.3-0.9c-0.6-0.6-0.9-1.3-0.9-2.3V101c0-1,0.3-1.7,0.9-2.3
				c0.6-0.6,1.3-0.9,2.3-0.9h3c1,0,1.7,0.3,2.3,0.9c0.6,0.6,0.9,1.3,0.9,2.3v1.2c0,0.1-0.1,0.2-0.2,0.2h-0.3c-0.1,0-0.2-0.1-0.2-0.2
				V101c0-0.8-0.2-1.4-0.6-1.9c-0.4-0.5-1-0.7-1.8-0.7h-3c-0.8,0-1.4,0.2-1.8,0.7c-0.4,0.5-0.6,1.1-0.6,1.9v8.6
				c0,0.8,0.2,1.4,0.6,1.9c0.4,0.5,1,0.7,1.8,0.7h3c0.8,0,1.4-0.2,1.8-0.7c0.4-0.5,0.6-1.1,0.6-1.9v-1.1c0-0.1,0.1-0.2,0.2-0.2h0.3
				c0.1,0,0.2,0.1,0.2,0.2v1.2c0,1-0.3,1.7-0.9,2.3C257.8,112.6,257,112.9,256.1,112.9z"/>
			<path class="st10" d="M263.1,112.9h-0.3c-0.1,0-0.2-0.1-0.2-0.2v-11.5c0-0.1,0.1-0.2,0.2-0.2h0.3c0.1,0,0.2,0.1,0.2,0.2v1.1h0.1
				c0.2-0.3,0.5-0.6,0.9-0.9c0.4-0.3,1-0.4,1.7-0.4h0.9c0.1,0,0.2,0.1,0.2,0.2v0.3c0,0.1-0.1,0.2-0.2,0.2h-1c-0.8,0-1.4,0.3-1.9,0.7
				c-0.5,0.5-0.7,1.2-0.7,2v8.3C263.3,112.8,263.2,112.9,263.1,112.9z"/>
			<path class="st10" d="M277.4,112.9h-4.8c-1,0-1.7-0.3-2.3-0.9c-0.6-0.6-0.9-1.3-0.9-2.3v-5.6c0-1,0.3-1.7,0.9-2.3
				c0.6-0.6,1.3-0.9,2.3-0.9h2.1c1,0,1.7,0.3,2.3,0.9c0.6,0.6,0.9,1.3,0.9,2.3v3c0,0.2-0.1,0.2-0.2,0.2h-7.2c-0.1,0-0.2,0.1-0.2,0.2
				v2.2c0,0.8,0.2,1.4,0.6,1.9c0.4,0.5,1,0.7,1.8,0.7h4.8c0.1,0,0.2,0.1,0.2,0.2v0.3C277.6,112.8,277.5,112.9,277.4,112.9z
				 M270.3,106.7h6.5c0.1,0,0.2-0.1,0.2-0.2v-2.3c0-0.8-0.2-1.4-0.6-1.9c-0.4-0.5-1-0.7-1.8-0.7h-2.1c-0.8,0-1.4,0.2-1.8,0.7
				c-0.4,0.5-0.6,1.1-0.6,1.9v2.3C270.1,106.6,270.2,106.7,270.3,106.7z"/>
			<path class="st10" d="M285.8,112.9H284c-1,0-1.7-0.3-2.3-0.9c-0.6-0.6-0.9-1.3-0.9-2.3v-5.6c0-1,0.3-1.7,0.9-2.3
				c0.6-0.6,1.3-0.9,2.3-0.9h4.8c0.1,0,0.2,0.1,0.2,0.2v11.5c0,0.1-0.1,0.2-0.2,0.2h-0.3c-0.1,0-0.2-0.1-0.2-0.2v-1h-0.1
				C287.8,112.5,287,112.9,285.8,112.9z M288.3,109.8v-8c0-0.1-0.1-0.2-0.2-0.2H284c-0.8,0-1.4,0.2-1.8,0.7
				c-0.4,0.5-0.6,1.1-0.6,1.9v5.5c0,0.8,0.2,1.4,0.6,1.9c0.4,0.5,1,0.7,1.8,0.7h1.7c0.8,0,1.4-0.2,1.9-0.6
				C288.1,111.2,288.3,110.6,288.3,109.8z"/>
			<path class="st10" d="M293.4,101.6h-1.5c-0.1,0-0.2-0.1-0.2-0.2v-0.3c0-0.1,0.1-0.2,0.2-0.2h1.5c0.1,0,0.2-0.1,0.2-0.2v-1.8
				c0-0.1,0.1-0.2,0.2-0.2h0.3c0.1,0,0.2,0.1,0.2,0.2v1.8c0,0.1,0.1,0.2,0.2,0.2h3c0.1,0,0.2,0.1,0.2,0.2v0.3c0,0.1-0.1,0.2-0.2,0.2
				h-3c-0.1,0-0.2,0.1-0.2,0.2v7.9c0,0.8,0.2,1.4,0.7,1.8c0.5,0.4,1.1,0.7,1.9,0.7h0.9c0.1,0,0.2,0.1,0.2,0.2v0.3
				c0,0.1-0.1,0.2-0.2,0.2h-0.9c-1,0-1.8-0.3-2.4-0.8c-0.6-0.6-0.9-1.3-0.9-2.3v-8C293.6,101.7,293.5,101.6,293.4,101.6z"/>
			<path class="st10" d="M301,99v-2.3c0-0.1,0.1-0.2,0.2-0.2h0.3c0.1,0,0.2,0.1,0.2,0.2V99c0,0.1-0.1,0.2-0.2,0.2h-0.3
				C301.1,99.2,301,99.1,301,99z M301,112.7v-11.5c0-0.1,0.1-0.2,0.2-0.2h0.3c0.1,0,0.2,0.1,0.2,0.2v11.5c0,0.1-0.1,0.2-0.2,0.2
				h-0.3C301.1,112.9,301,112.8,301,112.7z"/>
			<path class="st10" d="M306.1,112.9h-0.3c-0.1,0-0.2-0.1-0.2-0.2v-11.5c0-0.1,0.1-0.2,0.2-0.2h0.3c0.1,0,0.2,0.1,0.2,0.2v1h0.1
				c0.4-0.8,1.3-1.2,2.5-1.2h1.7c1,0,1.7,0.3,2.3,0.9c0.6,0.6,0.9,1.3,0.9,2.3v8.5c0,0.1-0.1,0.2-0.2,0.2h-0.3
				c-0.1,0-0.2-0.1-0.2-0.2v-8.5c0-0.8-0.2-1.4-0.6-1.9c-0.4-0.5-1-0.7-1.8-0.7h-1.7c-0.8,0-1.4,0.2-1.9,0.6c-0.5,0.4-0.7,1-0.7,1.8
				v8.6C306.3,112.8,306.2,112.9,306.1,112.9z"/>
			<path class="st10" d="M322.1,112.2h-1.7c-1,0-1.7-0.3-2.3-0.9c-0.6-0.6-0.9-1.3-0.9-2.3v-4.9c0-1,0.3-1.7,0.9-2.3
				c0.6-0.6,1.3-0.9,2.3-0.9h4.8c0.1,0,0.2,0.1,0.2,0.2v11.6c0,1-0.3,1.7-0.9,2.3s-1.3,0.9-2.3,0.9H318c-0.1,0-0.2-0.1-0.2-0.2v-0.3
				c0-0.1,0.1-0.2,0.2-0.2h4.2c0.8,0,1.4-0.2,1.8-0.7s0.6-1.1,0.6-1.9V111h-0.1C324.1,111.8,323.3,112.2,322.1,112.2z M324.6,109.1
				v-7.3c0-0.1-0.1-0.2-0.2-0.2h-4.1c-0.8,0-1.4,0.2-1.8,0.7c-0.4,0.5-0.6,1.1-0.6,1.9v4.8c0,0.8,0.2,1.4,0.6,1.9
				c0.4,0.5,1,0.7,1.8,0.7h1.7c0.8,0,1.4-0.2,1.9-0.6S324.6,109.9,324.6,109.1z"/>
			<path class="st10" d="M339.3,112.9h-4c-0.1,0-0.2-0.1-0.2-0.2v-0.3c0-0.1,0.1-0.2,0.2-0.2h4c1.6,0,2.4-0.6,2.4-1.9v-0.7
				c0-0.6-0.1-1-0.3-1.4c-0.2-0.4-0.6-0.6-1.1-0.8l-3.1-1.1c-0.8-0.3-1.4-0.6-1.7-1c-0.3-0.4-0.5-1-0.5-1.7c0-1.7,1-2.6,2.9-2.6h3.8
				c0.1,0,0.2,0.1,0.2,0.2v0.3c0,0.1-0.1,0.2-0.2,0.2h-3.8c-0.7,0-1.3,0.2-1.6,0.5s-0.5,0.7-0.5,1.1v0.6c0,0.5,0.1,0.9,0.4,1.2
				c0.3,0.3,0.7,0.5,1.2,0.7l3.1,1.1c0.8,0.2,1.4,0.6,1.6,1.1c0.2,0.5,0.4,1.3,0.4,2.2c0,1-0.2,1.6-0.7,2.1S340.4,112.9,339.3,112.9
				z"/>
			<path class="st10" d="M346.2,112.9h-0.3c-0.1,0-0.2-0.1-0.2-0.2v-16c0-0.1,0.1-0.2,0.2-0.2h0.3c0.1,0,0.2,0.1,0.2,0.2v5.5h0.1
				c0.4-0.8,1.3-1.2,2.5-1.2h1.7c1,0,1.7,0.3,2.3,0.9c0.6,0.6,0.9,1.3,0.9,2.3v8.5c0,0.1-0.1,0.2-0.2,0.2h-0.3
				c-0.1,0-0.2-0.1-0.2-0.2v-8.5c0-0.8-0.2-1.4-0.6-1.9c-0.4-0.5-1-0.7-1.8-0.7H349c-0.8,0-1.4,0.2-1.9,0.6c-0.5,0.4-0.7,1-0.7,1.8
				v8.6C346.3,112.8,346.3,112.9,346.2,112.9z"/>
			<path class="st10" d="M362,112.9h-1.7c-1,0-1.7-0.3-2.3-0.9c-0.6-0.6-0.9-1.3-0.9-2.3v-5.6c0-1,0.3-1.7,0.9-2.3
				c0.6-0.6,1.3-0.9,2.3-0.9h4.8c0.1,0,0.2,0.1,0.2,0.2v11.5c0,0.1-0.1,0.2-0.2,0.2h-0.3c-0.1,0-0.2-0.1-0.2-0.2v-1h-0.1
				C364.1,112.5,363.2,112.9,362,112.9z M364.6,109.8v-8c0-0.1-0.1-0.2-0.2-0.2h-4.1c-0.8,0-1.4,0.2-1.8,0.7
				c-0.4,0.5-0.6,1.1-0.6,1.9v5.5c0,0.8,0.2,1.4,0.6,1.9c0.4,0.5,1,0.7,1.8,0.7h1.7c0.8,0,1.4-0.2,1.9-0.6
				C364.4,111.2,364.6,110.6,364.6,109.8z"/>
			<path class="st10" d="M369.6,112.9h-0.3c-0.1,0-0.2-0.1-0.2-0.2v-11.5c0-0.1,0.1-0.2,0.2-0.2h0.3c0.1,0,0.2,0.1,0.2,0.2v1.1h0.1
				c0.2-0.3,0.5-0.6,0.9-0.9c0.4-0.3,1-0.4,1.7-0.4h0.9c0.1,0,0.2,0.1,0.2,0.2v0.3c0,0.1-0.1,0.2-0.2,0.2h-1c-0.8,0-1.4,0.3-1.9,0.7
				c-0.5,0.5-0.7,1.2-0.7,2v8.3C369.7,112.8,369.7,112.9,369.6,112.9z"/>
			<path class="st10" d="M383.8,112.9H379c-1,0-1.7-0.3-2.3-0.9c-0.6-0.6-0.9-1.3-0.9-2.3v-5.6c0-1,0.3-1.7,0.9-2.3
				c0.6-0.6,1.3-0.9,2.3-0.9h2.1c1,0,1.7,0.3,2.3,0.9c0.6,0.6,0.9,1.3,0.9,2.3v3c0,0.2-0.1,0.2-0.2,0.2h-7.2c-0.1,0-0.2,0.1-0.2,0.2
				v2.2c0,0.8,0.2,1.4,0.6,1.9c0.4,0.5,1,0.7,1.8,0.7h4.8c0.1,0,0.2,0.1,0.2,0.2v0.3C384,112.8,384,112.9,383.8,112.9z M376.8,106.7
				h6.5c0.1,0,0.2-0.1,0.2-0.2v-2.3c0-0.8-0.2-1.4-0.6-1.9c-0.4-0.5-1-0.7-1.8-0.7H379c-0.8,0-1.4,0.2-1.8,0.7
				c-0.4,0.5-0.6,1.1-0.6,1.9v2.3C376.6,106.6,376.7,106.7,376.8,106.7z"/>
			<path class="st10" d="M392.2,112.9h-1.7c-1,0-1.7-0.3-2.3-0.9c-0.6-0.6-0.9-1.3-0.9-2.3v-5.6c0-1,0.3-1.7,0.9-2.3
				c0.6-0.6,1.3-0.9,2.3-0.9h1.7c1.2,0,2,0.4,2.5,1.2h0.1v-5.5c0-0.1,0.1-0.2,0.2-0.2h0.3c0.1,0,0.2,0.1,0.2,0.2v16
				c0,0.1-0.1,0.2-0.2,0.2H395c-0.1,0-0.2-0.1-0.2-0.2v-1h-0.1C394.3,112.5,393.5,112.9,392.2,112.9z M394.8,109.8V104
				c0-0.8-0.2-1.4-0.7-1.8c-0.5-0.4-1.1-0.6-1.9-0.6h-1.7c-0.8,0-1.4,0.2-1.8,0.7c-0.4,0.5-0.6,1.1-0.6,1.9v5.5
				c0,0.8,0.2,1.4,0.6,1.9c0.4,0.5,1,0.7,1.8,0.7h1.7c0.8,0,1.4-0.2,1.9-0.6C394.6,111.2,394.8,110.6,394.8,109.8z"/>
			<path class="st10" d="M404.6,100.9h0.4c0.1,0,0.2,0.1,0.2,0.2l3.4,10.8h0.1l3.4-10.8c0-0.1,0.1-0.2,0.2-0.2h0.4
				c0.1,0,0.2,0.1,0.1,0.2l-3.7,11.5c0,0.1-0.1,0.2-0.3,0.2h-0.5c-0.1,0-0.2-0.1-0.3-0.2l-3.7-11.5
				C404.4,101,404.4,100.9,404.6,100.9z"/>
			<path class="st10" d="M419.8,112.9h-1.7c-1,0-1.7-0.3-2.3-0.9c-0.6-0.6-0.9-1.3-0.9-2.3v-5.6c0-1,0.3-1.7,0.9-2.3
				c0.6-0.6,1.3-0.9,2.3-0.9h4.8c0.1,0,0.2,0.1,0.2,0.2v11.5c0,0.1-0.1,0.2-0.2,0.2h-0.3c-0.1,0-0.2-0.1-0.2-0.2v-1h-0.1
				C421.9,112.5,421,112.9,419.8,112.9z M422.4,109.8v-8c0-0.1-0.1-0.2-0.2-0.2h-4.1c-0.8,0-1.4,0.2-1.8,0.7
				c-0.4,0.5-0.6,1.1-0.6,1.9v5.5c0,0.8,0.2,1.4,0.6,1.9c0.4,0.5,1,0.7,1.8,0.7h1.7c0.8,0,1.4-0.2,1.9-0.6
				C422.2,111.2,422.4,110.6,422.4,109.8z"/>
			<path class="st10" d="M427.5,112.9h-0.3c-0.1,0-0.2-0.1-0.2-0.2v-16c0-0.1,0.1-0.2,0.2-0.2h0.3c0.1,0,0.2,0.1,0.2,0.2v16
				C427.7,112.8,427.6,112.9,427.5,112.9z"/>
			<path class="st10" d="M436.3,112.9h-1.7c-1,0-1.7-0.3-2.3-0.9c-0.6-0.6-0.9-1.3-0.9-2.3v-8.5c0-0.1,0.1-0.2,0.2-0.2h0.3
				c0.1,0,0.2,0.1,0.2,0.2v8.5c0,0.8,0.2,1.4,0.6,1.9c0.4,0.5,1,0.7,1.8,0.7h1.7c0.8,0,1.4-0.2,1.9-0.6s0.7-1,0.7-1.8v-8.6
				c0-0.1,0.1-0.2,0.2-0.2h0.3c0.1,0,0.2,0.1,0.2,0.2v11.5c0,0.1-0.1,0.2-0.2,0.2H439c-0.1,0-0.2-0.1-0.2-0.2v-1h-0.1
				C438.3,112.5,437.5,112.9,436.3,112.9z"/>
			<path class="st10" d="M451,112.9h-4.8c-1,0-1.7-0.3-2.3-0.9c-0.6-0.6-0.9-1.3-0.9-2.3v-5.6c0-1,0.3-1.7,0.9-2.3
				c0.6-0.6,1.3-0.9,2.3-0.9h2.1c1,0,1.7,0.3,2.3,0.9c0.6,0.6,0.9,1.3,0.9,2.3v3c0,0.2-0.1,0.2-0.2,0.2H444c-0.1,0-0.2,0.1-0.2,0.2
				v2.2c0,0.8,0.2,1.4,0.6,1.9c0.4,0.5,1,0.7,1.8,0.7h4.8c0.1,0,0.2,0.1,0.2,0.2v0.3C451.2,112.8,451.1,112.9,451,112.9z M444,106.7
				h6.5c0.1,0,0.2-0.1,0.2-0.2v-2.3c0-0.8-0.2-1.4-0.6-1.9c-0.4-0.5-1-0.7-1.8-0.7h-2.1c-0.8,0-1.4,0.2-1.8,0.7
				c-0.4,0.5-0.6,1.1-0.6,1.9v2.3C443.7,106.6,443.8,106.7,444,106.7z"/>
			<path class="st10" d="M463.3,100.9h2.2c0.1,0,0.2,0.1,0.2,0.2v0.3c0,0.1-0.1,0.2-0.2,0.2h-2.2c-0.1,0-0.2,0.1-0.2,0.2v10.9
				c0,0.1-0.1,0.2-0.2,0.2h-0.3c-0.1,0-0.2-0.1-0.2-0.2v-10.9c0-0.1-0.1-0.2-0.2-0.2h-1.6c-0.1,0-0.2-0.1-0.2-0.2v-0.3
				c0-0.1,0.1-0.2,0.2-0.2h1.6c0.1,0,0.2-0.1,0.2-0.2v-1.2c0-2.1,0.9-3.1,2.8-3.1h0.4c0.1,0,0.2,0.1,0.2,0.2v0.3
				c0,0.1-0.1,0.2-0.2,0.2h-0.4c-0.7,0-1.3,0.2-1.6,0.6c-0.3,0.4-0.5,1-0.5,1.9v1.2C463.1,100.9,463.1,100.9,463.3,100.9z"/>
			<path class="st10" d="M473,112.9h-2c-1,0-1.7-0.3-2.3-0.9c-0.6-0.6-0.9-1.3-0.9-2.3v-5.6c0-1,0.3-1.7,0.9-2.3
				c0.6-0.6,1.3-0.9,2.3-0.9h2c1,0,1.7,0.3,2.3,0.9c0.6,0.6,0.9,1.3,0.9,2.3v5.6c0,1-0.3,1.7-0.9,2.3
				C474.7,112.6,473.9,112.9,473,112.9z M471,112.2h2c0.8,0,1.4-0.2,1.8-0.7c0.4-0.5,0.6-1.1,0.6-1.9v-5.5c0-0.8-0.2-1.4-0.6-1.9
				c-0.4-0.5-1-0.7-1.8-0.7h-2c-0.8,0-1.4,0.2-1.8,0.7c-0.4,0.5-0.6,1.1-0.6,1.9v5.5c0,0.8,0.2,1.4,0.6,1.9
				C469.6,112,470.2,112.2,471,112.2z"/>
			<path class="st10" d="M480.1,112.9h-0.3c-0.1,0-0.2-0.1-0.2-0.2v-11.5c0-0.1,0.1-0.2,0.2-0.2h0.3c0.1,0,0.2,0.1,0.2,0.2v1.1h0.1
				c0.2-0.3,0.5-0.6,0.9-0.9c0.4-0.3,1-0.4,1.7-0.4h0.9c0.1,0,0.2,0.1,0.2,0.2v0.3c0,0.1-0.1,0.2-0.2,0.2h-1c-0.8,0-1.4,0.3-1.9,0.7
				c-0.5,0.5-0.7,1.2-0.7,2v8.3C480.3,112.8,480.2,112.9,480.1,112.9z"/>
			<path class="st10" d="M493.8,101.6h-1.5c-0.1,0-0.2-0.1-0.2-0.2v-0.3c0-0.1,0.1-0.2,0.2-0.2h1.5c0.1,0,0.2-0.1,0.2-0.2v-1.8
				c0-0.1,0.1-0.2,0.2-0.2h0.3c0.1,0,0.2,0.1,0.2,0.2v1.8c0,0.1,0.1,0.2,0.2,0.2h3c0.1,0,0.2,0.1,0.2,0.2v0.3c0,0.1-0.1,0.2-0.2,0.2
				h-3c-0.1,0-0.2,0.1-0.2,0.2v7.9c0,0.8,0.2,1.4,0.7,1.8c0.5,0.4,1.1,0.7,1.9,0.7h0.9c0.1,0,0.2,0.1,0.2,0.2v0.3
				c0,0.1-0.1,0.2-0.2,0.2h-0.9c-1,0-1.8-0.3-2.4-0.8c-0.6-0.6-0.9-1.3-0.9-2.3v-8C494,101.7,494,101.6,493.8,101.6z"/>
			<path class="st10" d="M501.8,112.9h-0.3c-0.1,0-0.2-0.1-0.2-0.2v-16c0-0.1,0.1-0.2,0.2-0.2h0.3c0.1,0,0.2,0.1,0.2,0.2v5.5h0.1
				c0.4-0.8,1.3-1.2,2.5-1.2h1.7c1,0,1.7,0.3,2.3,0.9c0.6,0.6,0.9,1.3,0.9,2.3v8.5c0,0.1-0.1,0.2-0.2,0.2h-0.3
				c-0.1,0-0.2-0.1-0.2-0.2v-8.5c0-0.8-0.2-1.4-0.6-1.9c-0.4-0.5-1-0.7-1.8-0.7h-1.7c-0.8,0-1.4,0.2-1.9,0.6c-0.5,0.4-0.7,1-0.7,1.8
				v8.6C502,112.8,502,112.9,501.8,112.9z"/>
			<path class="st10" d="M520.8,112.9H516c-1,0-1.7-0.3-2.3-0.9c-0.6-0.6-0.9-1.3-0.9-2.3v-5.6c0-1,0.3-1.7,0.9-2.3
				c0.6-0.6,1.3-0.9,2.3-0.9h2.1c1,0,1.7,0.3,2.3,0.9c0.6,0.6,0.9,1.3,0.9,2.3v3c0,0.2-0.1,0.2-0.2,0.2h-7.2c-0.1,0-0.2,0.1-0.2,0.2
				v2.2c0,0.8,0.2,1.4,0.6,1.9c0.4,0.5,1,0.7,1.8,0.7h4.8c0.1,0,0.2,0.1,0.2,0.2v0.3C521,112.8,520.9,112.9,520.8,112.9z
				 M513.8,106.7h6.5c0.1,0,0.2-0.1,0.2-0.2v-2.3c0-0.8-0.2-1.4-0.6-1.9c-0.4-0.5-1-0.7-1.8-0.7H516c-0.8,0-1.4,0.2-1.8,0.7
				c-0.4,0.5-0.6,1.1-0.6,1.9v2.3C513.5,106.6,513.6,106.7,513.8,106.7z"/>
			<path class="st10" d="M538.6,112.9h-7.1c-0.1,0-0.2-0.1-0.2-0.2V98c0-0.1,0.1-0.2,0.2-0.2h7.1c0.1,0,0.2,0.1,0.2,0.2v0.3
				c0,0.1-0.1,0.2-0.2,0.2h-6.4c-0.1,0-0.2,0.1-0.2,0.2v6c0,0.1,0.1,0.2,0.2,0.2h5.8c0.1,0,0.2,0.1,0.2,0.2v0.3
				c0,0.1-0.1,0.2-0.2,0.2h-5.8c-0.1,0-0.2,0.1-0.2,0.2v6.3c0,0.1,0.1,0.2,0.2,0.2h6.4c0.1,0,0.2,0.1,0.2,0.2v0.3
				C538.8,112.8,538.8,112.9,538.6,112.9z"/>
			<path class="st10" d="M548.4,112.9h-2.9c-1,0-1.7-0.3-2.3-0.9c-0.6-0.6-0.9-1.3-0.9-2.3V101c0-1,0.3-1.7,0.9-2.3
				c0.6-0.6,1.3-0.9,2.3-0.9h2.9c1,0,1.7,0.3,2.3,0.9c0.6,0.6,0.9,1.3,0.9,2.3v8.7c0,1-0.3,1.7-0.9,2.3
				C550.1,112.6,549.4,112.9,548.4,112.9z M545.5,112.2h2.9c0.8,0,1.4-0.2,1.8-0.7c0.4-0.5,0.6-1.1,0.6-1.9V101
				c0-0.8-0.2-1.4-0.6-1.9c-0.4-0.5-1-0.7-1.8-0.7h-2.9c-0.8,0-1.4,0.2-1.8,0.7c-0.4,0.5-0.6,1.1-0.6,1.9v8.6c0,0.8,0.2,1.4,0.6,1.9
				C544.1,112,544.7,112.2,545.5,112.2z"/>
			<path class="st10" d="M555.5,109.7v-0.9c0-0.1,0.1-0.2,0.2-0.2h0.3c0.1,0,0.2,0.1,0.2,0.2v0.9c0,0.8,0.2,1.4,0.6,1.9
				c0.4,0.5,1,0.7,1.8,0.7h2.8c0.8,0,1.4-0.2,1.8-0.7c0.4-0.5,0.6-1.1,0.6-1.9v-1.2c0-0.7-0.3-1.3-0.9-1.7s-1.3-0.7-2.1-0.9
				c-0.8-0.2-1.6-0.4-2.5-0.6c-0.8-0.2-1.5-0.5-2.1-1c-0.6-0.5-0.9-1.1-0.9-1.8V101c0-1,0.3-1.7,0.9-2.3c0.6-0.6,1.3-0.9,2.3-0.9
				h2.8c1,0,1.7,0.3,2.3,0.9c0.6,0.6,0.9,1.3,0.9,2.3v0.7c0,0.1-0.1,0.2-0.2,0.2h-0.3c-0.1,0-0.2-0.1-0.2-0.2V101
				c0-0.8-0.2-1.4-0.6-1.9c-0.4-0.5-1-0.7-1.8-0.7h-2.8c-0.8,0-1.4,0.2-1.8,0.7c-0.4,0.5-0.6,1.1-0.6,1.9v1.4c0,1.2,1,1.9,2.9,2.4
				c0.8,0.2,1.6,0.4,2.5,0.6c0.8,0.2,1.5,0.6,2.1,1.1c0.6,0.5,0.9,1.2,0.9,2v1.2c0,1-0.3,1.7-0.9,2.3c-0.6,0.6-1.3,0.9-2.3,0.9h-2.8
				c-1,0-1.7-0.3-2.3-0.9C555.8,111.4,555.5,110.7,555.5,109.7z"/>
			<path class="st10" d="M581.5,112.4v0.3c0,0.1-0.1,0.2-0.2,0.2H578c-1,0-1.7-0.3-2.3-0.9c-0.6-0.6-0.9-1.3-0.9-2.3v-5.6
				c0-1,0.3-1.7,0.9-2.3c0.6-0.6,1.3-0.9,2.3-0.9h3.3c0.1,0,0.2,0.1,0.2,0.2v0.3c0,0.1-0.1,0.2-0.2,0.2H578c-0.8,0-1.4,0.2-1.8,0.7
				c-0.4,0.5-0.6,1.1-0.6,1.9v5.5c0,0.8,0.2,1.4,0.6,1.9c0.4,0.5,1,0.7,1.8,0.7h3.3C581.5,112.2,581.5,112.3,581.5,112.4z"/>
			<path class="st10" d="M589.1,112.9h-2c-1,0-1.7-0.3-2.3-0.9c-0.6-0.6-0.9-1.3-0.9-2.3v-5.6c0-1,0.3-1.7,0.9-2.3
				c0.6-0.6,1.3-0.9,2.3-0.9h2c1,0,1.7,0.3,2.3,0.9c0.6,0.6,0.9,1.3,0.9,2.3v5.6c0,1-0.3,1.7-0.9,2.3
				C590.8,112.6,590.1,112.9,589.1,112.9z M587.1,112.2h2c0.8,0,1.4-0.2,1.8-0.7c0.4-0.5,0.6-1.1,0.6-1.9v-5.5
				c0-0.8-0.2-1.4-0.6-1.9c-0.4-0.5-1-0.7-1.8-0.7h-2c-0.8,0-1.4,0.2-1.8,0.7c-0.4,0.5-0.6,1.1-0.6,1.9v5.5c0,0.8,0.2,1.4,0.6,1.9
				C585.7,112,586.3,112.2,587.1,112.2z"/>
			<path class="st10" d="M596.3,112.9h-0.3c-0.1,0-0.2-0.1-0.2-0.2v-11.5c0-0.1,0.1-0.2,0.2-0.2h0.3c0.1,0,0.2,0.1,0.2,0.2v1h0.1
				c0.4-0.8,1.3-1.2,2.5-1.2h1c1.4,0,2.3,0.6,2.8,1.7c0.2-0.5,0.6-1,1.2-1.2c0.6-0.3,1.2-0.4,1.8-0.4h0.9c1,0,1.7,0.3,2.3,0.9
				c0.6,0.6,0.9,1.3,0.9,2.3v8.5c0,0.1-0.1,0.2-0.2,0.2h-0.3c-0.1,0-0.2-0.1-0.2-0.2v-8.5c0-0.8-0.2-1.4-0.6-1.9
				c-0.4-0.5-1-0.7-1.8-0.7h-0.9c-0.8,0-1.4,0.2-1.9,0.7c-0.5,0.5-0.7,1.1-0.7,1.9v8.5c0,0.1-0.1,0.2-0.2,0.2h-0.3
				c-0.1,0-0.2-0.1-0.2-0.2v-8.5c0-0.8-0.2-1.4-0.6-1.9c-0.4-0.5-1-0.7-1.8-0.7h-1c-0.8,0-1.4,0.2-1.9,0.6c-0.5,0.4-0.7,1-0.7,1.8
				v8.6C596.4,112.8,596.4,112.9,596.3,112.9z"/>
			<path class="st10" d="M614.1,112.9h-0.3c-0.1,0-0.2-0.1-0.2-0.2v-11.5c0-0.1,0.1-0.2,0.2-0.2h0.3c0.1,0,0.2,0.1,0.2,0.2v1h0.1
				c0.4-0.8,1.3-1.2,2.5-1.2h1c1.4,0,2.3,0.6,2.8,1.7c0.2-0.5,0.6-1,1.2-1.2c0.6-0.3,1.2-0.4,1.8-0.4h0.9c1,0,1.7,0.3,2.3,0.9
				c0.6,0.6,0.9,1.3,0.9,2.3v8.5c0,0.1-0.1,0.2-0.2,0.2h-0.3c-0.1,0-0.2-0.1-0.2-0.2v-8.5c0-0.8-0.2-1.4-0.6-1.9
				c-0.4-0.5-1-0.7-1.8-0.7h-0.9c-0.8,0-1.4,0.2-1.9,0.7c-0.5,0.5-0.7,1.1-0.7,1.9v8.5c0,0.1-0.1,0.2-0.2,0.2h-0.3
				c-0.1,0-0.2-0.1-0.2-0.2v-8.5c0-0.8-0.2-1.4-0.6-1.9c-0.4-0.5-1-0.7-1.8-0.7h-1c-0.8,0-1.4,0.2-1.9,0.6c-0.5,0.4-0.7,1-0.7,1.8
				v8.6C614.2,112.8,614.2,112.9,614.1,112.9z"/>
			<path class="st10" d="M636.1,112.9h-1.7c-1,0-1.7-0.3-2.3-0.9c-0.6-0.6-0.9-1.3-0.9-2.3v-8.5c0-0.1,0.1-0.2,0.2-0.2h0.3
				c0.1,0,0.2,0.1,0.2,0.2v8.5c0,0.8,0.2,1.4,0.6,1.9c0.4,0.5,1,0.7,1.8,0.7h1.7c0.8,0,1.4-0.2,1.9-0.6s0.7-1,0.7-1.8v-8.6
				c0-0.1,0.1-0.2,0.2-0.2h0.3c0.1,0,0.2,0.1,0.2,0.2v11.5c0,0.1-0.1,0.2-0.2,0.2h-0.3c-0.1,0-0.2-0.1-0.2-0.2v-1h-0.1
				C638.1,112.5,637.3,112.9,636.1,112.9z"/>
			<path class="st10" d="M643.6,112.9h-0.3c-0.1,0-0.2-0.1-0.2-0.2v-11.5c0-0.1,0.1-0.2,0.2-0.2h0.3c0.1,0,0.2,0.1,0.2,0.2v1h0.1
				c0.4-0.8,1.3-1.2,2.5-1.2h1.7c1,0,1.7,0.3,2.3,0.9c0.6,0.6,0.9,1.3,0.9,2.3v8.5c0,0.1-0.1,0.2-0.2,0.2h-0.3
				c-0.1,0-0.2-0.1-0.2-0.2v-8.5c0-0.8-0.2-1.4-0.6-1.9c-0.4-0.5-1-0.7-1.8-0.7h-1.7c-0.8,0-1.4,0.2-1.9,0.6c-0.5,0.4-0.7,1-0.7,1.8
				v8.6C643.8,112.8,643.7,112.9,643.6,112.9z"/>
			<path class="st10" d="M655,99v-2.3c0-0.1,0.1-0.2,0.2-0.2h0.3c0.1,0,0.2,0.1,0.2,0.2V99c0,0.1-0.1,0.2-0.2,0.2h-0.3
				C655,99.2,655,99.1,655,99z M655,112.7v-11.5c0-0.1,0.1-0.2,0.2-0.2h0.3c0.1,0,0.2,0.1,0.2,0.2v11.5c0,0.1-0.1,0.2-0.2,0.2h-0.3
				C655,112.9,655,112.8,655,112.7z"/>
			<path class="st10" d="M660.1,101.6h-1.5c-0.1,0-0.2-0.1-0.2-0.2v-0.3c0-0.1,0.1-0.2,0.2-0.2h1.5c0.1,0,0.2-0.1,0.2-0.2v-1.8
				c0-0.1,0.1-0.2,0.2-0.2h0.3c0.1,0,0.2,0.1,0.2,0.2v1.8c0,0.1,0.1,0.2,0.2,0.2h3c0.1,0,0.2,0.1,0.2,0.2v0.3c0,0.1-0.1,0.2-0.2,0.2
				h-3c-0.1,0-0.2,0.1-0.2,0.2v7.9c0,0.8,0.2,1.4,0.7,1.8c0.5,0.4,1.1,0.7,1.9,0.7h0.9c0.1,0,0.2,0.1,0.2,0.2v0.3
				c0,0.1-0.1,0.2-0.2,0.2h-0.9c-1,0-1.8-0.3-2.4-0.8c-0.6-0.6-0.9-1.3-0.9-2.3v-8C660.3,101.7,660.2,101.6,660.1,101.6z"/>
			<path class="st10" d="M667.1,116.3c-0.1,0-0.2-0.1-0.2-0.2v-0.3c0-0.1,0.1-0.2,0.2-0.2h0.7c0.6,0,1.1-0.1,1.3-0.3
				c0.3-0.2,0.4-0.4,0.6-0.5c0.1-0.1,0.3-0.3,0.4-0.6c0.1-0.3,0.2-0.5,0.3-0.6c0.3-0.6,0.5-1.1,0.5-1.4h-0.2c-0.1,0-0.2-0.1-0.3-0.2
				l-4-10.9c0-0.1,0-0.2,0.1-0.2h0.4c0.1,0,0.2,0.1,0.2,0.2l3.8,10.4h0.1l3.8-10.4c0-0.1,0.1-0.2,0.2-0.2h0.4c0.1,0,0.2,0.1,0.1,0.2
				l-4,10.9c-0.5,1.4-0.8,2.3-1.1,2.7c-0.7,1-1.6,1.6-2.8,1.6H667.1z"/>
		</g>
		<g>
			<path class="st562" d="M250.7,156.6v-22c0-0.4,0.2-0.6,0.6-0.6h8.6c1.8,0,3.2,0.5,4.2,1.4c1,1,1.5,2.3,1.5,4.1v1.8
				c0,2.1-1,3.5-3,4.1c0.9,0.1,1.7,0.5,2.3,1.2c0.6,0.7,0.9,1.6,0.9,2.8v2.3c0,1.8-0.5,3.1-1.5,4.1c-1,1-2.4,1.4-4.1,1.4h-8.9
				C250.9,157.2,250.7,157,250.7,156.6z M254.6,143.8h4.7c1.8,0,2.8-0.9,2.8-2.6v-1.7c0-1.7-0.9-2.6-2.7-2.6h-4.8
				c-0.3,0-0.4,0.1-0.4,0.4v6.2C254.2,143.7,254.3,143.8,254.6,143.8z M254.6,154.2h5.1c1.8,0,2.7-0.9,2.7-2.6v-2.2
				c0-1.7-1-2.6-2.9-2.6h-4.9c-0.3,0-0.4,0.1-0.4,0.4v6.7C254.2,154.1,254.3,154.2,254.6,154.2z"/>
			<path class="st562" d="M283,157.2h-11.7c-0.4,0-0.6-0.2-0.6-0.6v-22c0-0.4,0.2-0.6,0.6-0.6h2.3c0.4,0,0.6,0.2,0.6,0.6v19.1
				c0,0.2,0.1,0.4,0.4,0.4h8.4c0.4,0,0.6,0.2,0.6,0.7v1.9C283.6,157,283.4,157.2,283,157.2z"/>
			<path class="st562" d="M296.4,157.2h-4.2c-1.8,0-3.2-0.5-4.1-1.5c-1-1-1.5-2.4-1.5-4.1v-12.1c0-1.8,0.5-3.2,1.5-4.1
				c1-1,2.4-1.5,4.1-1.5h4.2c1.8,0,3.2,0.5,4.2,1.5c1,1,1.5,2.4,1.5,4.1v12.1c0,1.8-0.5,3.1-1.5,4.1
				C299.5,156.7,298.2,157.2,296.4,157.2z M292.7,154.1h3.1c1.8,0,2.6-0.9,2.6-2.7v-11.8c0-1.8-0.9-2.7-2.6-2.7h-3.1
				c-1.7,0-2.6,0.9-2.6,2.7v11.8C290.1,153.2,290.9,154.1,292.7,154.1z"/>
			<path class="st562" d="M316.4,157.2h-4.2c-1.8,0-3.2-0.5-4.1-1.5c-1-1-1.5-2.4-1.5-4.1v-12.1c0-1.8,0.5-3.2,1.5-4.1
				c1-1,2.4-1.5,4.1-1.5h4.2c1.8,0,3.1,0.5,4.1,1.5c1,1,1.5,2.4,1.5,4.1v1.7c0,0.4-0.2,0.7-0.7,0.7H319c-0.4,0-0.6-0.2-0.6-0.7v-1.6
				c0-1.8-0.9-2.7-2.6-2.7h-3.1c-1.7,0-2.6,0.9-2.6,2.7v11.8c0,1.8,0.9,2.7,2.6,2.7h3.1c1.7,0,2.6-0.9,2.6-2.7v-1.6
				c0-0.4,0.2-0.7,0.6-0.7h2.3c0.4,0,0.7,0.2,0.7,0.7v1.7c0,1.8-0.5,3.1-1.5,4.1C319.5,156.7,318.1,157.2,316.4,157.2z"/>
			<path class="st562" d="M329.3,157.2h-2.3c-0.4,0-0.6-0.2-0.6-0.6v-22c0-0.4,0.2-0.6,0.6-0.6h2.3c0.4,0,0.6,0.2,0.6,0.6V146h0.1
				c0.2-0.7,0.6-1.3,0.9-1.8l6.9-9.7c0.3-0.4,0.7-0.6,1.2-0.6h2.7c0.5,0,0.6,0.2,0.3,0.7l-7.1,9.6l8,12.3c0.3,0.5,0.1,0.7-0.4,0.7
				h-2c-0.7,0-1.1-0.2-1.4-0.6l-6.3-9.8l-2.9,3.4v6.4C330,157,329.8,157.2,329.3,157.2z"/>
			<path class="st562" d="M357.8,157.2h-2.3c-0.4,0-0.6-0.2-0.6-0.6v-22c0-0.4,0.2-0.6,0.6-0.6h8.6c1.8,0,3.1,0.5,4.1,1.5
				c1,1,1.5,2.4,1.5,4.1v3.8c0,1.8-0.5,3.1-1.5,4.1c-1,1-2.4,1.5-4.1,1.5h-5.3c-0.3,0-0.4,0.1-0.4,0.4v7.3
				C358.4,157,358.2,157.2,357.8,157.2z M358.8,145.8h4.8c1.7,0,2.6-0.9,2.6-2.7v-3.4c0-1.8-0.9-2.7-2.6-2.7h-4.8
				c-0.3,0-0.4,0.1-0.4,0.4v8.1C358.4,145.7,358.5,145.8,358.8,145.8z"/>
			<path class="st562" d="M376.9,157.2h-2.3c-0.4,0-0.6-0.2-0.6-0.6v-22c0-0.4,0.2-0.6,0.6-0.6h8.5c1.8,0,3.1,0.5,4.1,1.5
				c1,1,1.5,2.4,1.5,4.1v3c0,2.8-1.1,4.5-3.4,5.2v0.1l4,8.5c0.3,0.5,0.1,0.7-0.5,0.7h-2.2c-0.6,0-1-0.2-1.1-0.6l-3.9-8.3H378
				c-0.3,0-0.4,0.1-0.4,0.4v8C377.5,157,377.3,157.2,376.9,157.2z M377.9,145.4h4.6c1.8,0,2.7-0.9,2.7-2.6v-3c0-1.8-0.9-2.7-2.7-2.7
				h-4.6c-0.3,0-0.4,0.1-0.4,0.4v7.6C377.5,145.2,377.7,145.4,377.9,145.4z"/>
			<path class="st562" d="M403.1,157.2h-4.2c-1.8,0-3.2-0.5-4.1-1.5c-1-1-1.5-2.4-1.5-4.1v-12.1c0-1.8,0.5-3.2,1.5-4.1
				c1-1,2.4-1.5,4.1-1.5h4.2c1.8,0,3.2,0.5,4.2,1.5c1,1,1.5,2.4,1.5,4.1v12.1c0,1.8-0.5,3.1-1.5,4.1
				C406.3,156.7,404.9,157.2,403.1,157.2z M399.4,154.1h3.1c1.8,0,2.6-0.9,2.6-2.7v-11.8c0-1.8-0.9-2.7-2.6-2.7h-3.1
				c-1.7,0-2.6,0.9-2.6,2.7v11.8C396.8,153.2,397.7,154.1,399.4,154.1z"/>
			<path class="st562" d="M413.6,156.6v-22c0-0.4,0.2-0.6,0.6-0.6h8.9c1.8,0,3.1,0.5,4.1,1.5c1,1,1.5,2.4,1.5,4.1v12.1
				c0,1.8-0.5,3.1-1.5,4.1c-1,1-2.4,1.5-4.1,1.5h-8.9C413.8,157.2,413.6,157,413.6,156.6z M417.5,154.1h5.1c1.7,0,2.6-0.9,2.6-2.7
				v-11.8c0-1.8-0.9-2.7-2.6-2.7h-5.1c-0.3,0-0.4,0.1-0.4,0.4v16.4C417.1,154,417.3,154.1,417.5,154.1z"/>
			<path class="st562" d="M445.9,133.9h2.3c0.4,0,0.7,0.2,0.7,0.6v17.1c0,1.8-0.5,3.1-1.5,4.1c-1,1-2.4,1.5-4.1,1.5h-4
				c-1.8,0-3.1-0.5-4.1-1.5c-1-1-1.5-2.4-1.5-4.1v-17c0-0.4,0.2-0.6,0.6-0.6h2.3c0.4,0,0.6,0.2,0.6,0.6v16.9c0,1.8,0.9,2.7,2.6,2.7
				h3c1.8,0,2.6-0.9,2.6-2.7v-16.9C445.2,134.1,445.5,133.9,445.9,133.9z"/>
			<path class="st562" d="M463.3,157.2h-4.2c-1.8,0-3.2-0.5-4.1-1.5c-1-1-1.5-2.4-1.5-4.1v-12.1c0-1.8,0.5-3.2,1.5-4.1
				c1-1,2.4-1.5,4.1-1.5h4.2c1.8,0,3.1,0.5,4.1,1.5c1,1,1.5,2.4,1.5,4.1v1.7c0,0.4-0.2,0.7-0.7,0.7H466c-0.4,0-0.6-0.2-0.6-0.7v-1.6
				c0-1.8-0.9-2.7-2.6-2.7h-3.1c-1.7,0-2.6,0.9-2.6,2.7v11.8c0,1.8,0.9,2.7,2.6,2.7h3.1c1.7,0,2.6-0.9,2.6-2.7v-1.6
				c0-0.4,0.2-0.7,0.6-0.7h2.3c0.4,0,0.7,0.2,0.7,0.7v1.7c0,1.8-0.5,3.1-1.5,4.1C466.4,156.7,465.1,157.2,463.3,157.2z"/>
			<path class="st562" d="M485.6,157.2H474c-0.4,0-0.6-0.2-0.6-0.6v-22c0-0.4,0.2-0.6,0.6-0.6h11.6c0.4,0,0.6,0.2,0.6,0.6v1.8
				c0,0.4-0.2,0.6-0.6,0.6h-8.3c-0.3,0-0.4,0.1-0.4,0.4v6.1c0,0.2,0.1,0.4,0.4,0.4h7c0.4,0,0.7,0.2,0.7,0.6v1.8
				c0,0.4-0.2,0.6-0.7,0.6h-7c-0.3,0-0.4,0.1-0.4,0.4v6.4c0,0.3,0.1,0.4,0.4,0.4h8.3c0.4,0,0.6,0.2,0.6,0.6v1.8
				C486.2,157,486,157.2,485.6,157.2z"/>
			<path class="st562" d="M493.7,157.2h-2.3c-0.4,0-0.6-0.2-0.6-0.6v-22c0-0.4,0.2-0.6,0.6-0.6h8.5c1.8,0,3.1,0.5,4.1,1.5
				c1,1,1.5,2.4,1.5,4.1v3c0,2.8-1.1,4.5-3.4,5.2v0.1l4,8.5c0.3,0.5,0.1,0.7-0.5,0.7h-2.2c-0.6,0-1-0.2-1.1-0.6l-3.9-8.3h-3.7
				c-0.3,0-0.4,0.1-0.4,0.4v8C494.3,157,494.1,157.2,493.7,157.2z M494.7,145.4h4.6c1.8,0,2.7-0.9,2.7-2.6v-3c0-1.8-0.9-2.7-2.7-2.7
				h-4.6c-0.3,0-0.4,0.1-0.4,0.4v7.6C494.3,145.2,494.4,145.4,494.7,145.4z"/>
			<path class="st562" d="M528.5,157.2h-4.2c-1.8,0-3.2-0.5-4.1-1.5c-1-1-1.5-2.4-1.5-4.1v-12.1c0-1.8,0.5-3.2,1.5-4.1
				c1-1,2.4-1.5,4.1-1.5h4.2c1.8,0,3.1,0.5,4.1,1.5c1,1,1.5,2.4,1.5,4.1v1.7c0,0.4-0.2,0.7-0.7,0.7h-2.3c-0.4,0-0.6-0.2-0.6-0.7
				v-1.6c0-1.8-0.9-2.7-2.6-2.7h-3.1c-1.7,0-2.6,0.9-2.6,2.7v11.8c0,1.8,0.9,2.7,2.6,2.7h3.1c1.7,0,2.6-0.9,2.6-2.7v-1.6
				c0-0.4,0.2-0.7,0.6-0.7h2.3c0.4,0,0.7,0.2,0.7,0.7v1.7c0,1.8-0.5,3.1-1.5,4.1C531.6,156.7,530.2,157.2,528.5,157.2z"/>
			<path class="st562" d="M539.8,157.2h-2.6c-0.3,0-0.5-0.2-0.4-0.6l6.3-22c0.1-0.4,0.4-0.6,0.9-0.6h3.6c0.5,0,0.8,0.2,0.9,0.6
				l6.3,22c0.1,0.4,0,0.6-0.4,0.6h-2.6c-0.2,0-0.4,0-0.5-0.1c-0.1-0.1-0.2-0.2-0.2-0.5l-1.4-4.7h-8l-1.4,4.7
				C540.4,157,540.2,157.2,539.8,157.2z M545.8,137.4l-3.2,11.6h6.6l-3.2-11.6H545.8z"/>
			<path class="st562" d="M561.3,157.2H559c-0.4,0-0.6-0.2-0.6-0.6v-22c0-0.4,0.2-0.6,0.6-0.6h2c0.4,0,0.7,0.1,0.8,0.4l8.8,15.7h0.1
				v-15.5c0-0.4,0.2-0.6,0.6-0.6h2.2c0.4,0,0.6,0.2,0.6,0.6v22c0,0.4-0.2,0.6-0.6,0.6h-2c-0.4,0-0.7-0.2-0.9-0.6l-8.7-15.6h-0.1
				v15.5C561.9,157,561.7,157.2,561.3,157.2z"/>
			<path class="st562" d="M579.5,156.6v-22c0-0.4,0.2-0.6,0.6-0.6h8.9c1.8,0,3.1,0.5,4.1,1.5c1,1,1.5,2.4,1.5,4.1v12.1
				c0,1.8-0.5,3.1-1.5,4.1c-1,1-2.4,1.5-4.1,1.5h-8.9C579.7,157.2,579.5,157,579.5,156.6z M583.4,154.1h5.1c1.7,0,2.6-0.9,2.6-2.7
				v-11.8c0-1.8-0.9-2.7-2.6-2.7h-5.1c-0.3,0-0.4,0.1-0.4,0.4v16.4C583,154,583.1,154.1,583.4,154.1z"/>
			<path class="st562" d="M603.3,134.5v22c0,0.4-0.2,0.6-0.6,0.6h-2.3c-0.4,0-0.6-0.2-0.6-0.6v-22c0-0.4,0.2-0.6,0.6-0.6h2.3
				C603.1,133.9,603.3,134.1,603.3,134.5z"/>
			<path class="st562" d="M608.7,156.6v-22c0-0.4,0.2-0.6,0.6-0.6h8.9c1.8,0,3.1,0.5,4.1,1.5c1,1,1.5,2.4,1.5,4.1v12.1
				c0,1.8-0.5,3.1-1.5,4.1c-1,1-2.4,1.5-4.1,1.5h-8.9C608.9,157.2,608.7,157,608.7,156.6z M612.7,154.1h5.1c1.7,0,2.6-0.9,2.6-2.7
				v-11.8c0-1.8-0.9-2.7-2.6-2.7h-5.1c-0.3,0-0.4,0.1-0.4,0.4v16.4C612.3,154,612.4,154.1,612.7,154.1z"/>
			<path class="st562" d="M630.1,157.2h-2.6c-0.3,0-0.5-0.2-0.4-0.6l6.3-22c0.1-0.4,0.4-0.6,0.9-0.6h3.6c0.5,0,0.8,0.2,0.9,0.6
				l6.3,22c0.1,0.4,0,0.6-0.4,0.6h-2.6c-0.2,0-0.4,0-0.5-0.1c-0.1-0.1-0.2-0.2-0.2-0.5l-1.4-4.7h-8l-1.4,4.7
				C630.7,157,630.4,157.2,630.1,157.2z M636,137.4l-3.2,11.6h6.6l-3.2-11.6H636z"/>
			<path class="st562" d="M655,157.2h-2.3c-0.4,0-0.7-0.2-0.7-0.6v-19.2c0-0.2-0.1-0.4-0.4-0.4h-4.6c-0.4,0-0.7-0.2-0.7-0.6v-1.8
				c0-0.4,0.2-0.6,0.7-0.6h13.4c0.4,0,0.7,0.2,0.7,0.6v1.8c0,0.4-0.2,0.6-0.7,0.6H656c-0.3,0-0.4,0.1-0.4,0.4v19.2
				C655.7,157,655.4,157.2,655,157.2z"/>
			<path class="st562" d="M676.6,157.2H665c-0.4,0-0.6-0.2-0.6-0.6v-22c0-0.4,0.2-0.6,0.6-0.6h11.6c0.4,0,0.6,0.2,0.6,0.6v1.8
				c0,0.4-0.2,0.6-0.6,0.6h-8.3c-0.3,0-0.4,0.1-0.4,0.4v6.1c0,0.2,0.1,0.4,0.4,0.4h7c0.4,0,0.7,0.2,0.7,0.6v1.8
				c0,0.4-0.2,0.6-0.7,0.6h-7c-0.3,0-0.4,0.1-0.4,0.4v6.4c0,0.3,0.1,0.4,0.4,0.4h8.3c0.4,0,0.6,0.2,0.6,0.6v1.8
				C677.2,157,677,157.2,676.6,157.2z"/>
		</g>
		<g>
			<path class="st10" d="M254.1,47.7h5.4c0.3,0,0.5,0.2,0.5,0.5v0.7c0,0.3-0.2,0.5-0.5,0.5h-5.4c-0.3,0-0.5,0.2-0.5,0.5v26.8
				c0,0.3-0.2,0.5-0.5,0.5h-0.8c-0.3,0-0.5-0.2-0.5-0.5V49.8c0-0.3-0.2-0.5-0.5-0.5h-3.9c-0.3,0-0.5-0.2-0.5-0.5v-0.7
				c0-0.3,0.2-0.5,0.5-0.5h3.9c0.3,0,0.5-0.2,0.5-0.5v-2.9c0-5.2,2.3-7.7,6.8-7.7h0.9c0.3,0,0.5,0.2,0.5,0.5v0.7
				c0,0.3-0.2,0.5-0.5,0.5h-0.9c-1.8,0-3.2,0.5-3.9,1.5c-0.8,1-1.2,2.6-1.2,4.6v2.9C253.6,47.6,253.7,47.7,254.1,47.7z"/>
			<path class="st10" d="M278.8,77.2H278c-0.3,0-0.5-0.2-0.5-0.5V48.3c0-0.3,0.2-0.5,0.5-0.5h0.8c0.3,0,0.5,0.2,0.5,0.5v2.6h0.2
				c0.4-0.8,1.2-1.5,2.2-2.1c1.1-0.7,2.4-1,4.1-1h2.3c0.3,0,0.5,0.2,0.5,0.5v0.7c0,0.3-0.2,0.5-0.5,0.5h-2.4c-2,0-3.5,0.6-4.7,1.8
				c-1.2,1.2-1.8,2.9-1.8,5v20.4C279.2,77,279.1,77.2,278.8,77.2z"/>
			<path class="st10" d="M318,77.2h-4.3c-2.3,0-4.2-0.7-5.6-2.1c-1.4-1.4-2.1-3.3-2.1-5.7V55.6c0-2.4,0.7-4.3,2.1-5.7
				c1.4-1.4,3.3-2.1,5.6-2.1h11.9c0.3,0,0.5,0.2,0.5,0.5v28.4c0,0.3-0.2,0.5-0.5,0.5h-0.8c-0.3,0-0.5-0.2-0.5-0.5v-2.5h-0.2
				C323,76.2,321,77.2,318,77.2z M324.3,69.6V49.8c0-0.3-0.2-0.5-0.5-0.5h-10.1c-1.9,0-3.4,0.6-4.4,1.7c-1,1.1-1.6,2.7-1.6,4.6v13.6
				c0,2,0.5,3.5,1.6,4.6c1,1.1,2.5,1.7,4.4,1.7h4.2c1.9,0,3.5-0.5,4.7-1.6C323.7,73,324.3,71.5,324.3,69.6z"/>
			<path class="st10" d="M348.1,77.2h-0.8c-0.3,0-0.5-0.2-0.5-0.5V48.3c0-0.3,0.2-0.5,0.5-0.5h0.8c0.3,0,0.5,0.2,0.5,0.5v2.5h0.2
				c1.1-2,3.1-3,6.1-3h4.3c2.3,0,4.2,0.7,5.6,2.1c1.4,1.4,2.1,3.3,2.1,5.7v21.1c0,0.3-0.2,0.5-0.5,0.5h-0.8c-0.3,0-0.5-0.2-0.5-0.5
				v-21c0-2-0.5-3.5-1.6-4.6s-2.5-1.7-4.4-1.7H355c-1.9,0-3.5,0.5-4.7,1.6c-1.2,1-1.8,2.5-1.8,4.4v21.3
				C348.6,77,348.4,77.2,348.1,77.2z"/>
			<path class="st10" d="M403.3,76v0.7c0,0.3-0.2,0.5-0.5,0.5h-8.2c-2.3,0-4.2-0.7-5.6-2.1c-1.4-1.4-2.1-3.3-2.1-5.7V55.6
				c0-2.4,0.7-4.3,2.1-5.7c1.4-1.4,3.3-2.1,5.6-2.1h8.2c0.3,0,0.5,0.2,0.5,0.5v0.7c0,0.3-0.2,0.5-0.5,0.5h-8.2
				c-1.9,0-3.4,0.6-4.4,1.7c-1,1.1-1.6,2.7-1.6,4.6v13.6c0,2,0.5,3.5,1.6,4.6c1,1.1,2.5,1.7,4.4,1.7h8.2
				C403.1,75.6,403.3,75.7,403.3,76z"/>
			<path class="st609" d="M440.5,77.2h-11.8c-2.3,0-4.2-0.7-5.6-2.1c-1.4-1.4-2.1-3.3-2.1-5.7V55.6c0-2.4,0.7-4.3,2.1-5.7
				c1.4-1.4,3.3-2.1,5.6-2.1h5.1c2.3,0,4.2,0.7,5.6,2.1c1.4,1.4,2.1,3.3,2.1,5.7v7.3c0,0.4-0.2,0.6-0.5,0.6h-17.8
				c-0.3,0-0.5,0.2-0.5,0.5v5.3c0,2,0.5,3.5,1.6,4.6c1,1.1,2.5,1.7,4.4,1.7h11.8c0.3,0,0.5,0.2,0.5,0.5v0.7
				C441,77,440.8,77.2,440.5,77.2z M423.2,61.9h16.1c0.3,0,0.5-0.2,0.5-0.5v-5.8c0-2-0.5-3.5-1.6-4.6c-1-1.1-2.5-1.7-4.4-1.7h-5.1
				c-1.9,0-3.4,0.6-4.4,1.7c-1,1.1-1.6,2.7-1.6,4.6v5.8C422.7,61.7,422.8,61.9,423.2,61.9z"/>
			<path class="st610" d="M473.5,77.2h-4.9c-2.3,0-4.2-0.7-5.6-2.1c-1.4-1.4-2.1-3.3-2.1-5.7V55.6c0-2.4,0.7-4.3,2.1-5.7
				c1.4-1.4,3.3-2.1,5.6-2.1h4.9c2.3,0,4.2,0.7,5.6,2.1c1.4,1.4,2.1,3.3,2.1,5.7v13.7c0,2.4-0.7,4.3-2.1,5.7
				C477.7,76.5,475.8,77.2,473.5,77.2z M468.6,75.6h4.9c1.9,0,3.4-0.6,4.4-1.7c1-1.1,1.6-2.7,1.6-4.6V55.7c0-2-0.5-3.5-1.6-4.6
				c-1-1.1-2.5-1.7-4.4-1.7h-4.9c-1.9,0-3.4,0.6-4.4,1.7c-1,1.1-1.6,2.7-1.6,4.6v13.6c0,2,0.5,3.5,1.6,4.6
				C465.1,75,466.6,75.6,468.6,75.6z"/>
			<path class="st610" d="M510.5,77.2h-9.8c-0.3,0-0.5-0.2-0.5-0.5V76c0-0.3,0.2-0.5,0.5-0.5h9.8c3.9,0,5.8-1.5,5.8-4.6v-1.7
				c0-1.4-0.3-2.6-0.8-3.5c-0.5-0.9-1.4-1.6-2.7-2l-7.6-2.7c-2-0.7-3.4-1.5-4.2-2.6c-0.8-1-1.2-2.5-1.2-4.3c0-4.3,2.3-6.5,7-6.5h9.3
				c0.3,0,0.5,0.2,0.5,0.5v0.7c0,0.3-0.2,0.5-0.5,0.5h-9.3c-1.8,0-3.1,0.4-4,1.2c-0.9,0.8-1.3,1.7-1.3,2.8v1.6c0,1.2,0.3,2.2,1,2.9
				c0.6,0.7,1.6,1.2,3,1.7l7.6,2.7c2,0.6,3.4,1.5,4,2.8c0.6,1.3,0.9,3.1,0.9,5.5c0,2.3-0.6,4.1-1.8,5.1
				C515,76.7,513.1,77.2,510.5,77.2z"/>
		</g>
	</g>
</g>
<g id="Calque_4" class="st611">
</g>
<g id="Calque_1">
</g>
</svg>
